<svg width="552" height="328" viewBox="0 0 552 328" fill="none" xmlns="http://www.w3.org/2000/svg">
<rect width="552" height="328" fill="#E5E5E5"/>
<path d="M2 115C2 99.5479 7.15432 84.4837 15.5556 71.5C24.0162 58.4244 35.856 49.944 47.0556 39.4444C58.8497 28.3874 69.4333 14.1405 85.6667 8.99999C97.6333 5.21054 107.733 1.99999 120.556 1.99999C135.338 1.99999 151.547 -0.124858 165.667 4.77777C170.916 6.60034 176.559 6.29892 181.944 7.55555C187.126 8.76462 192.139 11.2421 196.944 13.4444C209.406 19.1559 218.217 25.8293 225 37.8889C235.308 56.2146 233 79.6771 233 100.111C233 104.574 233 109.037 233 113.5C233 117.408 229.646 122.92 228.444 126.667C225.564 135.646 221.694 144.669 219.556 153.833C218.787 157.126 216.622 160.366 216.111 163.556C214.757 172.021 213 180.337 213 189.111C213 204.986 216.015 220.607 219.556 236.056C222.563 249.18 227.63 261.885 234.778 273.222C240.397 282.135 248.728 288.002 255.556 295.778C260.606 301.53 268.577 304.697 274.222 309.778C278.253 313.405 286.562 317.417 291.778 319.222C293.801 319.923 295.111 321.135 297 321.944C299.459 322.998 302.087 323.428 304.444 324.5C309.771 326.921 320.169 325.015 325.5 324C334.628 322.261 342.793 319.655 351.556 316.5C363.198 312.309 374.95 308.637 386.611 304.556C392.113 302.63 399.775 301.002 404.5 297.389C407.305 295.244 415.721 293.082 416.778 290C417.926 286.652 415.424 283.372 419.222 281.556C428.714 277.016 437.278 270.012 446.111 264.333C453.733 259.434 461.794 256.786 469.667 252.556C480.673 246.642 491.928 244.992 502 237.222C505.434 234.573 509.123 232.877 512.222 229.778C515.49 226.51 518.271 222.825 521.444 219.556C529.436 211.322 534.268 199.225 538 188.444C540.096 182.388 542 177.513 542 171C542 166.789 542.075 164.962 543.778 161.556C545.408 158.296 546.732 154.179 550 152" stroke="black" stroke-width="3" stroke-linecap="round"/>
</svg>
